# xmcd CD database file
# Copyright (C) 1997 Ti Kan
# 
# Track frame offsets:
#     150
#     22222
#     74582
#     85020
#     100622
#     122982
#     141815
#     162692
#     203502
#     222565
#     245050
#     276707
#     295292
#     309797
#     322282
# 
# Disc length: 4748 seconds
# 
# Revision: 1
# Processed by: cddbd v1.4b41PL1 Copyright (c) Steve Scherf et al.
# Submitted via: DiscPlay 4.0.3
# 
DISCID=f6128a0f
DTITLE=Stevie Ray Vaughan - Good vibes at the Spectrum
DYEAR=1900
DGENRE=
TTITLE0=Shuffle
TTITLE1=Voodoo Chile
TTITLE2=Honey bee
TTITLE3=Mary had a little lamb
TTITLE4=Coudn't stand the weather
TTITLE5=Cold shot
TTITLE6=Pride and joy
TTITLE7=Riviera paradise
TTITLE8=Testify
TTITLE9=So excited
TTITLE10=Voodoo chile
TTITLE11=Pride and joy
TTITLE12=Mary had a little lamb
TTITLE13=Love struck baby
TTITLE14=Texas flood
EXTD=
EXTT0=
EXTT1=
EXTT2=
EXTT3=
EXTT4=
EXTT5=
EXTT6=
EXTT7=
EXTT8=
EXTT9=
EXTT10=
EXTT11=
EXTT12=
EXTT13=
EXTT14=
PLAYORDER=
